<svg width="48" height="48" viewBox="0 0 48 48" fill="none" xmlns="http://www.w3.org/2000/svg">
<path d="M10 39.0004V12.4004C10 10.1602 10 9.03924 10.436 8.18359C10.8195 7.43095 11.4309 6.81947 12.1836 6.43597C13.0392 6 14.1602 6 16.4004 6H34.8004C35.9205 6 36.4813 6 36.9092 6.21799C37.2855 6.40973 37.5895 6.71547 37.7812 7.0918C37.9992 7.51962 38 8.08009 38 9.2002V32.8002C38 33.9203 37.9992 34.4796 37.7812 34.9074C37.5895 35.2837 37.2859 35.5905 36.9095 35.7822C36.4821 36 35.922 36 34.8041 36H14.5C12.0147 36 10 38.0147 10 40.5C10 41.3284 10.6716 42 11.5 42H32.8041C33.922 42 34.4821 42 34.9095 41.7822C35.2859 41.5905 35.5895 41.2839 35.7812 40.9076C35.9992 40.4798 36 39.9201 36 38.8V36" stroke="white" stroke-width="4" stroke-linecap="round" stroke-linejoin="round"/>
</svg>
